<?xml version="1.0" encoding="utf-8"?>
<!-- Generator: Adobe Illustrator 21.1.0, SVG Export Plug-In . SVG Version: 6.00 Build 0)  -->
<svg version="1.1" id="图层_1" xmlns="http://www.w3.org/2000/svg" xmlns:xlink="http://www.w3.org/1999/xlink" x="0px" y="0px"
	 viewBox="0 0 18 24" style="enable-background:new 0 0 18 24;" xml:space="preserve">
<style type="text/css">
	.st0{fill:#FFFFFF;}
</style>
<path class="st0" d="M17.1,13.5H0.9C0,13.5,0,12.9,0,12s0-1.5,0.9-1.5h16.2c0.9,0,0.9,0.6,0.9,1.5S18,13.5,17.1,13.5L17.1,13.5z
	 M17.1,7.5H0.9C0,7.5,0,6.9,0,6s0-1.5,0.9-1.5h16.2C18,4.5,18,5.1,18,6S18,7.5,17.1,7.5L17.1,7.5z M0.9,16.5h16.2
	c0.9,0,0.9,0.6,0.9,1.5s0,1.5-0.9,1.5H0.9C0,19.5,0,18.9,0,18S0,16.5,0.9,16.5z"/>
</svg>
